<svg xmlns="http://www.w3.org/2000/svg" xmlns:xlink="http://www.w3.org/1999/xlink" viewBox="0,0,256,256" width="30px" height="30px" fill-rule="nonzero"><g fill="#a5a7aa" fill-rule="nonzero" stroke="none" stroke-width="1" stroke-linecap="butt" stroke-linejoin="miter" stroke-miterlimit="10" stroke-dasharray="" stroke-dashoffset="0" font-family="none" font-weight="none" font-size="none" text-anchor="none" style="mix-blend-mode: normal"><g transform="scale(10.66667,10.66667)"><path d="M17.25,2.03125c-0.66406,0.10156 -1.26172,0.89453 -1.40625,1.90625l-0.8125,5.625c1.01563,-0.13672 2.05469,-0.20703 2.875,-0.0625l0.75,-5.15625c0.16406,-1.15234 -0.35156,-2.20312 -1.125,-2.3125c-0.09766,-0.01562 -0.1875,-0.01562 -0.28125,0zM10.1875,2.53125c-0.09766,0.00391 -0.1875,0.03125 -0.28125,0.0625c-0.73437,0.26172 -1.01562,1.37109 -0.625,2.46875l1.9375,5.46875c0.125,-0.125 0.27344,-0.23437 0.4375,-0.28125c0.58594,-0.16797 1.39844,-0.36719 2.28125,-0.53125l-2,-5.625c-0.34375,-0.96094 -1.07812,-1.59375 -1.75,-1.5625zM7.75,9.28125c-0.30078,-0.02344 -0.62891,0.07031 -0.875,0.28125c-0.49219,0.42188 -0.54687,1.16016 -0.125,1.65625l2.3125,2.71875c0.42188,0.49219 1.16406,0.54688 1.65625,0.125c0.49219,-0.42187 0.54688,-1.16016 0.125,-1.65625l-2.3125,-2.71875c-0.21094,-0.24609 -0.48047,-0.38281 -0.78125,-0.40625zM16.59375,10.5c-1.35156,-0.01953 -3.10547,0.38281 -4.125,0.5625c-0.5625,0.10156 -0.86719,0.73047 -0.71875,1.28125c0.14063,0.53125 0.67188,0.78906 1.21875,0.78125c0.79688,-0.01562 3.09375,-0.0625 3.09375,-0.0625l0.09375,1.25c0,0 -4.32812,1.89063 -3.21875,4.71875c-2.38281,-2.92187 2.0625,-5.09375 2.0625,-5.09375c0,0 -1.38672,0.19922 -1.53125,0.21875c-0.51953,0.07031 -1.30859,-0.04687 -1.5,-0.3125c-0.07031,0.42188 -0.25391,0.74609 -0.625,1.0625c-0.39844,0.33984 -0.88672,0.49219 -1.34375,0.46875c0.27734,0.65625 0.07031,1.49219 -0.5625,2.03125c-0.76562,0.65234 -1.96875,0.42578 -2.46875,-0.3125c-0.33984,-0.50391 -0.98828,-1.70312 -1.3125,-2.3125l1.53125,1.78125c0.42188,0.49219 1.16406,0.54688 1.65625,0.125c0.49219,-0.42187 0.54688,-1.16406 0.125,-1.65625l-1.53125,-1.78125c-0.42187,-0.49219 -1.16406,-0.54687 -1.65625,-0.125c-1.73047,1.12109 -0.59375,4.55469 0.09375,5.65625c1.33984,2.14063 3.03906,3.36719 6.3125,3.21875c3.30078,-0.14844 5.17969,-1.44531 6.21875,-5.34375c0.55859,-2.09766 1.21484,-5.25 -0.625,-5.96875c-0.32031,-0.125 -0.73828,-0.17969 -1.1875,-0.1875z"></path></g></g></svg>